<?xml version="1.0" encoding="UTF-8" standalone="no"?>
<!-- Created with Inkscape (http://www.inkscape.org/) -->
<svg
   xmlns:dc="http://purl.org/dc/elements/1.1/"
   xmlns:cc="http://creativecommons.org/ns#"
   xmlns:rdf="http://www.w3.org/1999/02/22-rdf-syntax-ns#"
   xmlns:svg="http://www.w3.org/2000/svg"
   xmlns="http://www.w3.org/2000/svg"
   xmlns:xlink="http://www.w3.org/1999/xlink"
   xmlns:sodipodi="http://sodipodi.sourceforge.net/DTD/sodipodi-0.dtd"
   xmlns:inkscape="http://www.inkscape.org/namespaces/inkscape"
   width="131.96375"
   height="179.12038"
   id="svg2473"
   sodipodi:version="0.32"
   inkscape:version="0.46"
   inkscape:export-filename="/Users/esdentem/projects/open-bldc/open-bldc-logo.png"
   inkscape:export-xdpi="70.246582"
   inkscape:export-ydpi="70.246582"
   sodipodi:docname="open-bldc-logo-wiki.svg"
   inkscape:output_extension="org.inkscape.output.svg.inkscape"
   version="1.0">
  <defs
     id="defs3">
    <linearGradient
       inkscape:collect="always"
       id="linearGradient3648">
      <stop
         style="stop-color:#ffffff;stop-opacity:1;"
         offset="0"
         id="stop3650" />
      <stop
         style="stop-color:#ffffff;stop-opacity:0;"
         offset="1"
         id="stop3652" />
    </linearGradient>
    <linearGradient
       inkscape:collect="always"
       xlink:href="#linearGradient3648"
       id="linearGradient3772"
       gradientUnits="userSpaceOnUse"
       x1="3304.2856"
       y1="766.64789"
       x2="3304.2856"
       y2="1210.9703" />
    <filter
       inkscape:collect="always"
       id="filter3718"
       x="-0.048686672"
       width="1.0973732"
       y="-1.0711067"
       height="3.1422136">
      <feGaussianBlur
         inkscape:collect="always"
         stdDeviation="9.0165098"
         id="feGaussianBlur3720" />
    </filter>
    <inkscape:perspective
       sodipodi:type="inkscape:persp3d"
       inkscape:vp_x="0 : 526.18109 : 1"
       inkscape:vp_y="0 : 1000 : 0"
       inkscape:vp_z="744.09448 : 526.18109 : 1"
       inkscape:persp3d-origin="372.04724 : 350.78739 : 1"
       id="perspective2479" />
  </defs>
  <sodipodi:namedview
     inkscape:document-units="mm"
     id="base"
     pagecolor="#ffffff"
     bordercolor="#666666"
     borderopacity="1.0"
     inkscape:pageopacity="0.0"
     inkscape:pageshadow="2"
     inkscape:zoom="1.24"
     inkscape:cx="53.1169"
     inkscape:cy="99.720249"
     inkscape:current-layer="layer1"
     showgrid="false"
     inkscape:window-width="958"
     inkscape:window-height="1179"
     inkscape:window-x="1920"
     inkscape:window-y="19" />
  <metadata
     id="metadata4">
    <rdf:RDF>
      <cc:Work
         rdf:about="">
        <dc:format>image/svg+xml</dc:format>
        <dc:type
           rdf:resource="http://purl.org/dc/dcmitype/StillImage" />
      </cc:Work>
    </rdf:RDF>
  </metadata>
  <g
     inkscape:label="Layer 1"
     inkscape:groupmode="layer"
     id="layer1"
     transform="translate(-288.30384,-266.02784)">
    <rect
       style="opacity:1;fill:#68afed;fill-opacity:1;stroke:none;stroke-width:1;stroke-linecap:butt;stroke-linejoin:round;stroke-miterlimit:4;stroke-dasharray:none;stroke-opacity:1"
       id="rect3754"
       width="124.79076"
       height="133.13799"
       x="291.34708"
       y="-431.17181"
       rx="12.103452"
       ry="12.103452"
       transform="scale(1,-1)" />
    <path
       sodipodi:nodetypes="ccccccccccccccccccccccssccccccsscccccccscccccssssccsccscccccssscccccsccsccsssscccccsccccccccccccccccccccccccccccc"
       id="path3756"
       d="M 305.00214,293.86186 C 295.75344,293.86186 288.30384,301.31146 288.30384,310.56016 L 288.30384,417.83486 C 288.30384,427.08356 295.75344,434.52406 305.00214,434.52406 L 403.07404,434.52406 C 412.32274,434.52406 419.77234,427.08356 419.77234,417.83486 L 419.77234,310.56016 C 419.77234,301.31146 412.32274,293.86186 403.07404,293.86186 L 305.00214,293.86186 z M 305.00214,300.12486 L 403.07404,300.12486 C 408.96104,300.12486 413.50934,304.67326 413.50934,310.56016 L 413.50934,417.83486 C 413.50934,423.72176 408.96514,428.26106 403.07404,428.26106 L 359.35164,428.26106 L 359.35164,421.54156 L 362.15444,421.54156 C 364.68864,421.54156 366.72844,419.50176 366.72844,416.96756 L 366.72844,416.66626 L 371.43944,416.66626 C 371.84314,417.68026 372.65384,418.48856 373.66704,418.89386 L 373.66704,421.02436 C 372.70114,421.54926 372.04204,422.56906 372.04204,423.74496 C 372.04204,425.45556 373.42644,426.84916 375.13694,426.84916 C 376.31294,426.84916 377.34184,426.18996 377.86674,425.22406 L 413.69394,425.22406 L 413.69394,422.27516 L 377.86674,422.27516 C 377.58044,421.74826 377.14284,421.31066 376.61604,421.02436 L 376.61604,418.89386 C 378.08414,418.30656 379.12674,416.87346 379.12674,415.19636 C 379.12674,412.99716 377.33614,411.20666 375.13694,411.20666 C 373.45984,411.20666 372.02674,412.24916 371.43944,413.71736 L 366.72844,413.71736 L 366.72844,413.42516 C 366.72844,410.89096 364.68864,408.85116 362.15444,408.85116 L 359.35164,408.85116 L 359.35164,403.53766 L 361.41494,403.53766 C 363.94914,403.53766 365.98894,401.49786 365.98894,398.96366 C 365.98894,398.06556 365.72954,397.23116 365.28594,396.52596 L 380.02134,370.99916 L 381.86564,372.06736 L 382.51384,370.94436 L 385.78224,376.54096 C 383.32444,378.75616 381.78344,381.96706 381.78344,385.53376 C 381.78344,392.21286 387.20124,397.63066 393.88034,397.63066 C 400.55944,397.63066 405.97724,392.21286 405.97734,385.53376 C 405.97734,378.85466 400.55944,373.43686 393.88034,373.43686 C 392.86614,373.43686 391.88224,373.55746 390.94054,373.79286 L 385.80964,365.01006 C 386.44304,363.00726 385.63494,360.77396 383.73724,359.67826 C 383.30894,359.43096 382.86194,359.26516 382.40424,359.16706 L 365.71504,330.57266 C 365.89004,330.08666 365.98894,329.56826 365.98894,329.02056 C 365.98894,326.48636 363.94914,324.44656 361.41494,324.44656 L 359.35164,324.44656 L 359.35164,323.26876 L 357.74474,323.26876 L 357.74474,320.65766 C 359.41444,319.48746 360.51104,317.54556 360.51114,315.35326 C 360.51114,311.78236 357.60904,308.88946 354.03814,308.88946 C 350.46714,308.88946 347.57424,311.78236 347.57424,315.35326 C 347.57424,317.54556 348.66174,319.48746 350.33144,320.65766 L 350.33144,323.26876 L 348.72454,323.26876 L 348.72454,324.44656 L 346.66124,324.44656 C 344.12704,324.44656 342.08724,326.48636 342.08724,329.02056 C 342.08724,329.77616 342.26764,330.48446 342.58934,331.11126 L 326.25624,359.09396 C 325.62404,359.15526 324.99074,359.33896 324.40284,359.67826 C 322.34544,360.86616 321.55904,363.39306 322.51304,365.51226 L 317.60124,373.92076 C 316.52054,373.60386 315.37864,373.43686 314.19584,373.43686 C 307.51674,373.43686 302.09894,378.85466 302.09894,385.53376 C 302.09894,392.21286 307.51674,397.63066 314.19584,397.63066 C 320.87494,397.63066 326.30194,392.21286 326.30184,385.53376 C 326.30184,382.14086 324.89294,379.07656 322.64084,376.87876 L 325.86364,371.35526 L 326.27454,372.06736 L 328.12784,370.99916 L 342.82674,396.46206 C 342.35904,397.17986 342.08724,398.03946 342.08724,398.96366 C 342.08724,401.49786 344.12704,403.53766 346.66124,403.53766 L 348.72454,403.53766 L 348.72454,408.85116 L 345.92174,408.85116 C 343.38754,408.85116 341.34774,410.89096 341.34774,413.42516 L 341.34774,416.96756 C 341.34774,419.50166 343.38754,421.54156 345.92174,421.54156 L 348.72454,421.54156 L 348.72454,428.26106 L 305.00214,428.26106 C 299.11104,428.26106 294.56684,423.72176 294.56684,417.83486 L 294.56684,310.56016 C 294.56684,304.67326 299.11524,300.12486 305.00214,300.12486 z M 347.90294,333.59456 L 348.72454,333.59456 L 348.72454,394.38966 L 347.08124,394.38966 L 332.21794,368.63456 L 334.19914,367.49336 L 331.17724,362.25286 L 347.90294,333.59456 z M 359.35164,333.59456 L 360.71194,333.59456 L 377.20944,361.85116 L 373.95014,367.49336 L 375.93124,368.63456 L 361.06804,394.38966 L 359.35164,394.38966 L 359.35164,333.59456 z"
       style="opacity:1;fill:#2b2b2b;fill-opacity:1;fill-rule:nonzero;stroke:none;stroke-width:3;stroke-linecap:butt;stroke-linejoin:round;marker:none;marker-start:none;marker-mid:none;marker-end:none;stroke-miterlimit:4;stroke-dasharray:none;stroke-dashoffset:0;stroke-opacity:1;visibility:visible;display:inline;overflow:visible;enable-background:accumulate" />
    <path
       transform="matrix(0.2921523,0,0,0.2921523,-613.07306,34.406701)"
       sodipodi:type="inkscape:offset"
       inkscape:radius="0"
       inkscape:original="M 3142.4688 888.09375 C 3110.8114 888.09377 3085.3125 913.59286 3085.3125 945.25 L 3085.3125 1181.3438 C 3229.3853 1159.2943 3379.0237 1143.735 3535.3125 1135.9375 L 3535.3125 945.25 C 3535.3127 913.59288 3509.8133 888.09375 3478.1562 888.09375 L 3142.4688 888.09375 z "
       style="opacity:0.9466019;fill:url(#linearGradient3772);fill-opacity:1;stroke:none;stroke-width:1;stroke-linecap:butt;stroke-linejoin:round;stroke-miterlimit:4;stroke-dasharray:none;stroke-opacity:1"
       id="path3758"
       d="M 3142.4688,888.09375 C 3110.8114,888.09377 3085.3125,913.59286 3085.3125,945.25 L 3085.3125,1181.3438 C 3229.3853,1159.2943 3379.0237,1143.735 3535.3125,1135.9375 L 3535.3125,945.25 C 3535.3127,913.59288 3509.8133,888.09375 3478.1562,888.09375 L 3142.4688,888.09375 z" />
    <path
       transform="matrix(0.2921523,0,0,0.1682026,-787.94706,208.66956)"
       d="M 4135.5644,1395.8141 A 222.23355,10.101525 0 1 1 3691.0973,1395.8141 A 222.23355,10.101525 0 1 1 4135.5644,1395.8141 z"
       sodipodi:ry="10.101525"
       sodipodi:rx="222.23355"
       sodipodi:cy="1395.8141"
       sodipodi:cx="3913.3308"
       id="path3760"
       style="opacity:0.60679614;fill:#000000;fill-opacity:1;stroke:none;stroke-width:1;stroke-linecap:butt;stroke-linejoin:round;stroke-miterlimit:4;stroke-dasharray:none;stroke-opacity:1;filter:url(#filter3718)"
       sodipodi:type="arc" />
    <path
       style="font-size:45.26335907px;font-style:normal;font-variant:normal;font-weight:bold;font-stretch:normal;text-align:start;line-height:125%;writing-mode:lr-tb;text-anchor:start;fill:#484848;fill-opacity:1;stroke:none;stroke-width:1px;stroke-linecap:butt;stroke-linejoin:miter;stroke-opacity:1;font-family:Nimbus Sans L;-inkscape-font-specification:Nimbus Sans L Bold"
       d="M 300.00109,266.02784 C 297.77836,266.02784 295.94783,266.76875 294.59685,268.22882 C 293.1803,269.75431 292.37396,271.97704 292.37396,274.35237 C 292.37396,276.7277 293.1803,278.97219 294.59685,280.47593 C 295.96958,281.95774 297.75661,282.6769 300.023,282.6769 C 302.28924,282.6769 304.07626,281.95774 305.44915,280.47593 C 306.82204,279.01585 307.67189,276.70578 307.67189,274.4613 C 307.67189,271.97704 306.86556,269.75431 305.44915,268.22882 C 304.05451,266.72525 302.28924,266.02784 300.00109,266.02784 M 300.023,268.81713 C 302.70337,268.81713 304.40321,270.99636 304.40321,274.43955 C 304.40321,277.68647 302.63795,279.88745 300.023,279.88745 C 297.38615,279.88745 295.6428,277.68647 295.6428,274.35237 C 295.6428,271.01811 297.38615,268.81713 300.023,268.81713 M 312.75691,270.40805 L 309.70609,270.40805 L 309.70609,286.92626 L 312.75691,286.92626 L 312.75691,280.78095 C 313.49782,282.08843 314.54393,282.69865 316.02575,282.69865 C 318.85871,282.69865 320.95059,280.04005 320.95059,276.46618 C 320.95059,274.81 320.47121,273.15383 319.6868,272.06422 C 318.90222,270.95286 317.44215,270.21178 316.02575,270.21178 C 314.54393,270.21178 313.49782,270.84392 312.75691,272.1514 L 312.75691,270.40805 M 315.32834,272.76162 C 316.87559,272.76162 317.89978,274.2652 317.89978,276.50984 C 317.89978,278.6454 316.83192,280.14898 315.32834,280.14898 C 313.80285,280.14898 312.75691,278.66715 312.75691,276.46618 C 312.75691,274.2652 313.80285,272.76162 315.32834,272.76162 M 333.18304,277.25059 C 333.20496,276.98923 333.20496,276.88014 333.20496,276.7277 C 333.20496,275.55091 333.03061,274.4613 332.74732,273.63321 C 331.96274,271.49765 330.06696,270.21178 327.69163,270.21178 C 324.3137,270.21178 322.24357,272.65253 322.24357,276.59686 C 322.24357,280.36699 324.29194,282.6769 327.62621,282.6769 C 330.2629,282.6769 332.39862,281.17316 333.07411,278.86325 L 330.06696,278.86325 C 329.69634,279.80027 328.8465,280.34508 327.73514,280.34508 C 326.86339,280.34508 326.16614,279.97462 325.73026,279.32089 C 325.44698,278.88501 325.33806,278.36196 325.29438,277.25059 L 333.18304,277.25059 M 325.33806,275.22396 C 325.53416,273.43711 326.29683,272.5436 327.64796,272.5436 C 328.41063,272.5436 329.10803,272.91406 329.54391,273.52429 C 329.82719,273.96 329.95787,274.4178 330.02329,275.22396 L 325.33806,275.22396 M 335.26735,270.40805 L 335.26735,282.1756 L 338.31816,282.1756 L 338.31816,275.11504 C 338.31816,273.72039 339.29885,272.80513 340.78067,272.80513 C 342.08814,272.80513 342.74187,273.52429 342.74187,274.91893 L 342.74187,282.1756 L 345.79285,282.1756 L 345.79285,274.28695 C 345.79285,271.69376 344.35454,270.21178 341.84853,270.21178 C 340.25761,270.21178 339.18975,270.80026 338.31816,272.10772 L 338.31816,270.40805 L 335.26735,270.40805 M 353.71035,274.72283 L 347.78306,274.72283 L 347.78306,277.66472 L 353.71035,277.66472 L 353.71035,274.72283 M 356.28162,282.1756 L 363.42919,282.1756 C 365.25988,282.1756 366.48018,281.8269 367.43894,281.02074 C 368.39788,280.21439 369.0081,278.86325 369.0081,277.5993 C 369.0081,276.0303 368.1581,274.78808 366.37125,273.74214 C 367.94025,272.73971 368.55031,271.82444 368.55031,270.4733 C 368.55031,269.38369 368.0055,268.22882 367.11216,267.44424 C 366.17499,266.63807 365.06362,266.28936 363.36394,266.28936 L 356.28162,266.28936 L 356.28162,282.1756 M 359.55029,269.0134 L 363.10241,269.0134 C 364.60599,269.0134 365.41232,269.64522 365.41232,270.82201 C 365.41232,271.97704 364.60599,272.60902 363.10241,272.60902 L 359.55029,272.60902 L 359.55029,269.0134 M 359.55029,275.33289 L 363.45112,275.33289 C 365.04186,275.33289 365.86995,276.05205 365.86995,277.40319 C 365.86995,278.73258 365.04186,279.45157 363.45112,279.45157 L 359.55029,279.45157 L 359.55029,275.33289 M 375.25476,266.28936 L 371.98609,266.28936 L 371.98609,282.1756 L 382.86014,282.1756 L 382.86014,279.45157 L 375.25476,279.45157 L 375.25476,266.28936 M 385.24272,282.1756 L 391.45328,282.1756 C 393.87229,282.1756 395.39778,281.60905 396.46547,280.32333 C 397.72944,278.8415 398.40492,276.68403 398.40492,274.22152 C 398.40492,271.78094 397.72944,269.62347 396.46547,268.11989 C 395.39778,266.83417 393.89404,266.28936 391.45328,266.28936 L 385.24272,266.28936 L 385.24272,282.1756 M 388.51139,279.45157 L 388.51139,269.0134 L 391.45328,269.0134 C 393.91579,269.0134 395.13624,270.73483 395.13624,274.24345 C 395.13624,277.73014 393.91579,279.45157 391.45328,279.45157 L 388.51139,279.45157 M 414.17482,271.67201 C 414.06588,270.29912 413.78261,269.42736 413.10695,268.53385 C 411.88666,266.92135 409.92546,266.02784 407.55012,266.02784 C 403.06099,266.02784 400.27154,269.23126 400.27154,274.37412 C 400.27154,279.47349 403.03924,282.6769 407.46295,282.6769 C 411.40727,282.6769 414.04413,280.38875 414.24024,276.74945 L 411.05858,276.74945 C 410.86247,278.77608 409.57675,279.93112 407.55012,279.93112 C 405.02219,279.93112 403.54038,277.88257 403.54038,274.4178 C 403.54038,270.90918 405.08762,268.81713 407.65905,268.81713 C 408.79217,268.81713 409.72935,269.20951 410.33942,269.97216 C 410.68812,270.40805 410.86247,270.82201 411.05858,271.67201 L 414.17482,271.67201"
       id="text3814" />
  </g>
</svg>
