<?xml version="1.0" encoding="UTF-8" standalone="no"?>
<!-- Created with Inkscape (http://www.inkscape.org/) -->
<svg
   xmlns:dc="http://purl.org/dc/elements/1.1/"
   xmlns:cc="http://creativecommons.org/ns#"
   xmlns:rdf="http://www.w3.org/1999/02/22-rdf-syntax-ns#"
   xmlns:svg="http://www.w3.org/2000/svg"
   xmlns="http://www.w3.org/2000/svg"
   xmlns:xlink="http://www.w3.org/1999/xlink"
   xmlns:sodipodi="http://sodipodi.sourceforge.net/DTD/sodipodi-0.dtd"
   xmlns:inkscape="http://www.inkscape.org/namespaces/inkscape"
   width="131.46851"
   height="140.6622"
   id="svg2473"
   sodipodi:version="0.32"
   inkscape:version="0.46"
   inkscape:export-filename="/Users/esdentem/projects/open-bldc/open-bldc-logo.png"
   inkscape:export-xdpi="70.246582"
   inkscape:export-ydpi="70.246582"
   sodipodi:docname="open-bldc-logo-pcb.svg"
   inkscape:output_extension="org.inkscape.output.svg.inkscape"
   version="1.0">
  <defs
     id="defs3">
    <linearGradient
       inkscape:collect="always"
       id="linearGradient3648">
      <stop
         style="stop-color:#ffffff;stop-opacity:1;"
         offset="0"
         id="stop3650" />
      <stop
         style="stop-color:#ffffff;stop-opacity:0;"
         offset="1"
         id="stop3652" />
    </linearGradient>
    <linearGradient
       inkscape:collect="always"
       xlink:href="#linearGradient3648"
       id="linearGradient3772"
       gradientUnits="userSpaceOnUse"
       x1="3304.2856"
       y1="766.64789"
       x2="3304.2856"
       y2="1210.9703" />
    <inkscape:perspective
       sodipodi:type="inkscape:persp3d"
       inkscape:vp_x="0 : 526.18109 : 1"
       inkscape:vp_y="0 : 1000 : 0"
       inkscape:vp_z="744.09448 : 526.18109 : 1"
       inkscape:persp3d-origin="372.04724 : 350.78739 : 1"
       id="perspective2479" />
  </defs>
  <sodipodi:namedview
     inkscape:document-units="mm"
     id="base"
     pagecolor="#ffffff"
     bordercolor="#666666"
     borderopacity="1.0"
     inkscape:pageopacity="0.0"
     inkscape:pageshadow="2"
     inkscape:zoom="3.42"
     inkscape:cx="60"
     inkscape:cy="66.904763"
     inkscape:current-layer="layer1"
     showgrid="false"
     inkscape:window-width="958"
     inkscape:window-height="1179"
     inkscape:window-x="1920"
     inkscape:window-y="19" />
  <metadata
     id="metadata4">
    <rdf:RDF>
      <cc:Work
         rdf:about="">
        <dc:format>image/svg+xml</dc:format>
        <dc:type
           rdf:resource="http://purl.org/dc/dcmitype/StillImage" />
      </cc:Work>
    </rdf:RDF>
  </metadata>
  <g
     inkscape:label="Layer 1"
     inkscape:groupmode="layer"
     id="layer1"
     transform="translate(-288.30384,-293.86186)">
    <path
       sodipodi:nodetypes="ccccccccccccccccccccccssccccccsscccccccscccccssssccsccscccccssscccccsccsccsssscccccsccccccccccccccccccccccccccccc"
       id="path3756"
       d="M 305.00214,293.86186 C 295.75344,293.86186 288.30384,301.31146 288.30384,310.56016 L 288.30384,417.83486 C 288.30384,427.08356 295.75344,434.52406 305.00214,434.52406 L 403.07404,434.52406 C 412.32274,434.52406 419.77234,427.08356 419.77234,417.83486 L 419.77234,310.56016 C 419.77234,301.31146 412.32274,293.86186 403.07404,293.86186 L 305.00214,293.86186 z M 305.00214,300.12486 L 403.07404,300.12486 C 408.96104,300.12486 413.50934,304.67326 413.50934,310.56016 L 413.50934,417.83486 C 413.50934,423.72176 408.96514,428.26106 403.07404,428.26106 L 359.35164,428.26106 L 359.35164,421.54156 L 362.15444,421.54156 C 364.68864,421.54156 366.72844,419.50176 366.72844,416.96756 L 366.72844,416.66626 L 371.43944,416.66626 C 371.84314,417.68026 372.65384,418.48856 373.66704,418.89386 L 373.66704,421.02436 C 372.70114,421.54926 372.04204,422.56906 372.04204,423.74496 C 372.04204,425.45556 373.42644,426.84916 375.13694,426.84916 C 376.31294,426.84916 377.34184,426.18996 377.86674,425.22406 L 413.69394,425.22406 L 413.69394,422.27516 L 377.86674,422.27516 C 377.58044,421.74826 377.14284,421.31066 376.61604,421.02436 L 376.61604,418.89386 C 378.08414,418.30656 379.12674,416.87346 379.12674,415.19636 C 379.12674,412.99716 377.33614,411.20666 375.13694,411.20666 C 373.45984,411.20666 372.02674,412.24916 371.43944,413.71736 L 366.72844,413.71736 L 366.72844,413.42516 C 366.72844,410.89096 364.68864,408.85116 362.15444,408.85116 L 359.35164,408.85116 L 359.35164,403.53766 L 361.41494,403.53766 C 363.94914,403.53766 365.98894,401.49786 365.98894,398.96366 C 365.98894,398.06556 365.72954,397.23116 365.28594,396.52596 L 380.02134,370.99916 L 381.86564,372.06736 L 382.51384,370.94436 L 385.78224,376.54096 C 383.32444,378.75616 381.78344,381.96706 381.78344,385.53376 C 381.78344,392.21286 387.20124,397.63066 393.88034,397.63066 C 400.55944,397.63066 405.97724,392.21286 405.97734,385.53376 C 405.97734,378.85466 400.55944,373.43686 393.88034,373.43686 C 392.86614,373.43686 391.88224,373.55746 390.94054,373.79286 L 385.80964,365.01006 C 386.44304,363.00726 385.63494,360.77396 383.73724,359.67826 C 383.30894,359.43096 382.86194,359.26516 382.40424,359.16706 L 365.71504,330.57266 C 365.89004,330.08666 365.98894,329.56826 365.98894,329.02056 C 365.98894,326.48636 363.94914,324.44656 361.41494,324.44656 L 359.35164,324.44656 L 359.35164,323.26876 L 357.74474,323.26876 L 357.74474,320.65766 C 359.41444,319.48746 360.51104,317.54556 360.51114,315.35326 C 360.51114,311.78236 357.60904,308.88946 354.03814,308.88946 C 350.46714,308.88946 347.57424,311.78236 347.57424,315.35326 C 347.57424,317.54556 348.66174,319.48746 350.33144,320.65766 L 350.33144,323.26876 L 348.72454,323.26876 L 348.72454,324.44656 L 346.66124,324.44656 C 344.12704,324.44656 342.08724,326.48636 342.08724,329.02056 C 342.08724,329.77616 342.26764,330.48446 342.58934,331.11126 L 326.25624,359.09396 C 325.62404,359.15526 324.99074,359.33896 324.40284,359.67826 C 322.34544,360.86616 321.55904,363.39306 322.51304,365.51226 L 317.60124,373.92076 C 316.52054,373.60386 315.37864,373.43686 314.19584,373.43686 C 307.51674,373.43686 302.09894,378.85466 302.09894,385.53376 C 302.09894,392.21286 307.51674,397.63066 314.19584,397.63066 C 320.87494,397.63066 326.30194,392.21286 326.30184,385.53376 C 326.30184,382.14086 324.89294,379.07656 322.64084,376.87876 L 325.86364,371.35526 L 326.27454,372.06736 L 328.12784,370.99916 L 342.82674,396.46206 C 342.35904,397.17986 342.08724,398.03946 342.08724,398.96366 C 342.08724,401.49786 344.12704,403.53766 346.66124,403.53766 L 348.72454,403.53766 L 348.72454,408.85116 L 345.92174,408.85116 C 343.38754,408.85116 341.34774,410.89096 341.34774,413.42516 L 341.34774,416.96756 C 341.34774,419.50166 343.38754,421.54156 345.92174,421.54156 L 348.72454,421.54156 L 348.72454,428.26106 L 305.00214,428.26106 C 299.11104,428.26106 294.56684,423.72176 294.56684,417.83486 L 294.56684,310.56016 C 294.56684,304.67326 299.11524,300.12486 305.00214,300.12486 z M 347.90294,333.59456 L 348.72454,333.59456 L 348.72454,394.38966 L 347.08124,394.38966 L 332.21794,368.63456 L 334.19914,367.49336 L 331.17724,362.25286 L 347.90294,333.59456 z M 359.35164,333.59456 L 360.71194,333.59456 L 377.20944,361.85116 L 373.95014,367.49336 L 375.93124,368.63456 L 361.06804,394.38966 L 359.35164,394.38966 L 359.35164,333.59456 z"
       style="opacity:1;fill:#2b2b2b;fill-opacity:1;fill-rule:nonzero;stroke:none;stroke-width:3;stroke-linecap:butt;stroke-linejoin:round;marker:none;marker-start:none;marker-mid:none;marker-end:none;stroke-miterlimit:4;stroke-dasharray:none;stroke-dashoffset:0;stroke-opacity:1;visibility:visible;display:inline;overflow:visible;enable-background:accumulate" />
  </g>
</svg>
